<?xml version="1.0" standalone="no"?>
<!DOCTYPE svg PUBLIC "-//W3C//DTD SVG 20010904//EN"
 "http://www.w3.org/TR/2001/REC-SVG-20010904/DTD/svg10.dtd">
<svg version="1.0" xmlns="http://www.w3.org/2000/svg"
 width="1196.000000pt" height="1196.000000pt" viewBox="0 0 1196.000000 1196.000000"
 preserveAspectRatio="xMidYMid meet">
<metadata>
Created by potrace 1.14, written by Peter Selinger 2001-2017
</metadata>
<g transform="translate(0.000000,1196.000000) scale(0.100000,-0.100000)"
fill="#000000" stroke="none">
<path d="M10026 9723 c-1 -2 -31 -5 -67 -8 -65 -6 -114 -12 -114 -15 0 -1 -9
-3 -20 -5 -26 -4 -44 -9 -140 -35 -52 -14 -117 -24 -185 -26 -58 -2 -116 -6
-130 -9 -14 -3 -37 -8 -53 -11 -15 -3 -39 -12 -55 -20 -15 -7 -31 -14 -37 -14
-11 0 -152 -53 -200 -75 -16 -8 -73 -32 -125 -53 -156 -65 -312 -138 -540
-251 -194 -97 -252 -127 -400 -209 -25 -13 -74 -40 -110 -60 -36 -19 -94 -53
-129 -74 -34 -21 -65 -38 -67 -38 -3 0 -161 -94 -234 -139 -163 -101 -307
-191 -315 -198 -5 -5 -84 -58 -175 -118 -91 -60 -167 -112 -170 -115 -3 -3
-18 -14 -35 -24 -33 -21 -515 -381 -555 -415 -14 -11 -30 -24 -35 -28 -81 -61
-148 -115 -184 -148 -67 -60 -171 -164 -171 -170 0 -3 -11 -17 -25 -31 -14
-14 -38 -44 -52 -65 -17 -26 -56 -58 -114 -94 -49 -30 -93 -55 -99 -55 -5 0
-10 -4 -10 -8 0 -4 -16 -14 -35 -21 -19 -7 -35 -16 -35 -21 0 -4 -12 -11 -27
-15 -15 -3 -30 -10 -33 -14 -3 -4 -39 -26 -80 -48 -225 -119 -605 -338 -645
-371 -5 -4 -25 -19 -44 -32 -58 -41 -62 -45 -166 -131 -116 -96 -340 -319
-395 -394 -21 -28 -64 -73 -95 -100 -32 -28 -70 -61 -85 -75 -29 -26 -145
-130 -185 -165 -12 -11 -55 -49 -95 -85 -176 -156 -248 -240 -289 -340 -25
-58 -41 -84 -49 -76 -4 4 -149 -43 -197 -65 -11 -4 -56 -22 -100 -40 -127 -49
-338 -155 -415 -208 -24 -17 -61 -34 -68 -31 -2 1 -10 -7 -18 -17 -14 -17 -14
-16 -4 4 5 12 14 24 19 27 7 5 8 41 1 41 -3 0 -12 55 -14 83 0 12 -3 22 -6 22
-3 0 -6 19 -8 42 -3 44 -15 60 -39 51 -7 -3 -13 -1 -13 5 0 6 11 9 24 8 19 -2
24 1 23 15 -1 11 -4 19 -8 19 -10 0 -52 40 -47 45 3 3 13 -4 23 -15 24 -26 31
-25 31 5 0 15 -7 27 -18 31 -10 3 -18 10 -18 17 0 8 3 8 12 -1 19 -19 23 -14
24 33 1 32 -3 45 -13 45 -11 0 -11 -4 -2 -22 11 -20 10 -21 -2 -11 -12 10 -15
8 -16 -9 -1 -12 -7 -24 -14 -28 -6 -4 -9 -12 -5 -18 3 -6 2 -14 -4 -17 -6 -4
-8 -15 -5 -26 4 -10 2 -19 -3 -19 -5 0 -9 -7 -9 -15 0 -8 4 -15 9 -15 4 0 8
-5 8 -11 0 -5 -4 -8 -9 -4 -5 3 -12 1 -16 -5 -3 -5 1 -10 9 -10 8 0 18 -5 22
-11 4 -7 0 -9 -12 -5 -17 5 -19 0 -19 -36 0 -58 33 -62 42 -5 3 19 -13 23 -20
5 -4 -10 -6 -10 -6 -1 -2 21 18 24 43 6 23 -18 29 -54 13 -80 -12 -18 3 -42
21 -36 9 4 4 -7 -13 -23 -16 -16 -34 -28 -38 -26 -5 2 1 11 13 19 19 14 20 17
6 38 -13 20 -13 24 -1 29 8 3 15 11 15 17 0 8 -4 8 -15 -1 -12 -10 -21 -10
-42 -1 -14 6 -28 9 -31 7 -3 -3 3 -8 12 -12 9 -3 16 -10 16 -16 0 -5 -4 -6
-10 -3 -5 3 -10 3 -11 -2 0 -4 -2 -18 -3 -30 -1 -12 0 -21 3 -19 3 2 13 -3 21
-12 13 -14 12 -15 -2 -9 -9 3 -19 1 -21 -6 -5 -16 12 -67 32 -92 10 -13 10
-15 1 -7 -18 16 -35 16 -22 -1 15 -17 13 -19 -113 -125 -60 -50 -114 -97 -120
-102 -5 -6 -24 -22 -41 -38 -17 -15 -66 -58 -108 -96 -43 -39 -87 -78 -99 -89
-12 -10 -42 -36 -67 -57 -43 -37 -65 -56 -107 -90 -60 -50 -118 -90 -130 -90
-8 0 -11 5 -8 10 3 6 -2 10 -12 10 -15 0 -16 2 -3 10 13 8 13 10 -2 10 -12 0
-15 5 -11 17 5 12 3 14 -7 8 -10 -6 -12 -4 -7 8 3 10 2 17 -3 17 -18 0 -21
-22 -6 -45 9 -13 16 -28 16 -32 0 -4 -5 0 -11 10 -9 16 -12 15 -43 -8 -18 -14
-37 -25 -42 -25 -5 0 -1 5 8 11 16 9 15 12 -7 46 -14 20 -25 41 -25 47 0 6 5
4 10 -4 6 -10 10 -11 10 -2 0 30 -64 66 -73 40 -2 -7 -2 -3 0 10 4 26 -3 28
-23 8 -10 -11 -11 -17 -3 -22 8 -5 7 -10 -5 -16 -9 -5 -22 -5 -29 -1 -14 9
-19 43 -6 43 5 0 9 -9 9 -20 0 -11 5 -20 11 -20 6 0 9 6 6 14 -3 8 3 22 14 32
18 16 20 16 40 -2 12 -10 23 -18 25 -16 11 6 24 1 19 -8 -9 -14 7 -12 29 5 10
8 23 12 27 9 5 -3 9 2 9 11 0 17 -2 17 -46 -2 -12 -4 -54 34 -54 50 0 10 -25
37 -35 37 -3 0 -3 -9 0 -20 4 -12 2 -20 -5 -20 -6 0 -8 5 -5 10 3 6 2 10 -2
10 -12 0 -35 -41 -27 -48 4 -4 9 -1 11 6 3 6 9 12 15 12 7 0 7 -5 -1 -13 -6
-8 -26 -14 -43 -14 -27 -1 -29 1 -13 7 11 5 16 9 11 9 -6 1 -1 8 10 16 19 15
19 15 0 30 -11 8 -16 15 -10 16 5 0 0 4 -11 9 -18 8 -18 9 5 8 14 0 34 3 45 8
17 7 18 6 5 -8 -8 -9 -18 -14 -22 -11 -10 5 -10 -11 -1 -20 3 -4 14 0 24 9 22
20 33 13 65 -37 13 -21 29 -39 36 -39 7 0 6 6 -4 18 -20 23 -30 52 -18 52 6 0
10 -8 10 -18 0 -24 19 -42 37 -35 11 4 9 12 -9 37 -13 17 -30 44 -38 60 -8 16
-20 30 -27 33 -6 3 -9 11 -6 20 5 13 3 13 -16 1 -20 -11 -24 -11 -37 6 -7 11
-17 16 -21 12 -5 -4 2 -16 14 -26 12 -9 19 -20 16 -24 -4 -3 -1 -6 5 -6 5 0
13 5 15 10 3 6 4 5 3 -2 -1 -7 -12 -14 -24 -14 -12 -1 -19 3 -16 8 10 15 -16
36 -39 32 -21 -4 -21 -4 -2 5 11 5 16 10 10 11 -5 0 -1 6 9 12 15 8 22 7 31
-6 14 -19 35 -21 35 -3 -1 23 -27 60 -34 48 -4 -6 -11 -9 -16 -6 -4 3 -11 -2
-14 -11 -3 -9 -12 -14 -20 -11 -16 6 -56 -19 -56 -35 0 -6 8 -4 18 5 10 10 23
17 28 17 5 0 1 -5 -9 -11 -18 -10 -18 -12 -1 -30 16 -18 16 -20 0 -38 -17 -18
-17 -20 1 -30 10 -6 14 -11 9 -11 -5 0 -18 7 -28 17 -11 9 -18 11 -18 5 0 -7
9 -17 20 -24 26 -17 25 -22 -6 -37 l-26 -11 26 -31 c14 -17 26 -35 26 -40 0
-5 7 -9 16 -9 9 0 12 -5 8 -12 -4 -7 -3 -8 4 -4 7 4 12 1 12 -7 0 -8 14 -29
30 -47 17 -18 30 -36 30 -40 0 -4 7 -11 16 -14 14 -5 15 -4 5 8 -7 8 -10 19
-7 25 3 5 3 11 -1 14 -5 2 -1 2 7 -1 8 -3 26 -5 40 -4 16 0 18 -2 7 -5 -9 -2
-15 -9 -12 -14 4 -5 2 -9 -4 -9 -5 0 -11 6 -14 13 -2 6 -8 9 -12 5 -4 -4 -2
-14 4 -22 8 -9 8 -16 2 -20 -5 -4 1 -18 15 -33 13 -14 24 -29 24 -33 0 -3 -52
-33 -116 -65 -64 -32 -128 -70 -142 -84 -45 -45 -62 -100 -58 -184 3 -41 9
-84 14 -94 13 -24 48 -175 58 -243 10 -78 12 -259 3 -322 -15 -108 -21 -141
-29 -164 -5 -13 -7 -24 -4 -24 2 0 0 -9 -6 -20 -9 -17 -5 -28 27 -68 21 -26
44 -53 51 -60 7 -8 10 -17 7 -22 -12 -19 63 -185 105 -234 38 -42 104 -66 173
-60 26 1 48 -1 48 -6 1 -6 2 -13 3 -17 1 -5 6 -28 10 -53 13 -71 71 -147 120
-156 6 -2 25 -6 41 -11 37 -10 49 -10 105 6 71 21 98 38 182 120 43 41 86 79
95 82 12 4 37 -9 78 -40 81 -63 102 -75 157 -90 118 -33 236 10 443 160 82 59
160 99 195 99 14 0 37 -8 50 -17 27 -19 141 -25 209 -11 37 7 140 46 157 60 6
4 37 22 70 39 32 17 75 41 94 53 19 13 90 58 157 100 239 152 474 345 558 460
47 64 197 263 212 281 9 11 50 69 90 130 63 93 78 110 102 112 33 3 274 96
291 113 3 3 41 23 85 45 44 22 82 42 85 45 3 3 21 13 40 24 79 42 126 69 140
81 8 7 35 23 60 36 25 13 47 27 50 30 3 3 59 42 125 87 200 137 186 126 419
312 10 8 29 25 42 38 13 12 25 22 28 22 3 0 16 10 29 23 13 12 51 47 85 77 98
86 219 209 397 404 76 83 185 228 185 246 0 6 4 10 8 10 5 0 14 11 20 25 6 14
17 25 23 25 16 0 82 32 97 47 7 7 17 13 21 13 4 0 18 8 30 18 11 9 33 26 47
37 15 11 34 27 43 35 9 8 28 22 41 32 39 25 235 189 238 199 2 5 8 9 13 9 6 0
20 10 33 23 30 28 113 97 140 117 12 8 30 24 41 35 11 11 45 41 75 65 30 25
60 49 67 55 6 5 35 31 65 57 29 25 76 65 103 88 28 24 81 70 119 104 38 33 78
67 89 75 11 8 34 28 52 45 18 17 57 51 86 76 30 25 76 65 104 90 56 51 50 46
135 120 35 30 71 62 80 70 9 8 45 40 79 70 35 30 73 64 85 75 12 11 55 49 96
85 40 36 86 76 101 90 15 14 55 50 89 80 34 30 79 71 100 90 21 19 62 55 90
80 29 25 76 68 106 95 29 28 88 82 130 120 422 386 1620 1580 1702 1696 7 10
15 36 17 59 3 22 7 57 9 78 3 21 10 50 16 66 13 35 8 41 -33 42 -29 2 -170 25
-237 39 -14 3 -47 10 -75 15 -27 6 -61 13 -75 16 -14 3 -38 7 -55 10 -16 2
-39 7 -50 11 -22 8 -25 8 -75 17 -19 3 -44 7 -55 10 -11 2 -40 7 -65 11 -25 4
-55 9 -67 11 -55 10 -291 23 -297 17z m-7635 -4400 c13 -17 13 -17 -6 -3 -11
8 -22 16 -24 17 -2 2 0 3 6 3 6 0 17 -8 24 -17z m-5 -60 c-6 -6 -36 9 -36 18
0 5 9 4 20 -3 10 -7 18 -14 16 -15z m9 -54 c11 -16 1 -19 -13 -3 -7 8 -8 14
-3 14 5 0 13 -5 16 -11z m-39 -134 c-6 -25 8 -36 17 -12 4 9 6 9 6 0 1 -16
-14 -24 -32 -17 -12 4 -12 10 -3 30 14 31 20 31 12 -1z m78 -44 c3 -5 -2 -8
-11 -7 -9 0 -18 -5 -20 -12 -3 -8 2 -10 14 -6 17 5 17 5 1 -9 -10 -8 -15 -17
-11 -20 3 -4 1 -7 -6 -7 -7 0 -11 -7 -8 -14 4 -10 1 -13 -8 -10 -12 5 -12 9 0
28 8 13 12 26 9 29 -8 7 14 37 27 37 4 0 10 -4 13 -9z m-74 -32 c0 -6 6 -7 13
-2 6 4 4 -5 -5 -19 -17 -26 -17 -28 0 -37 9 -6 12 -11 6 -11 -18 0 -37 27 -24
35 5 3 10 11 10 17 0 7 -6 6 -15 -2 -10 -9 -15 -9 -15 -1 0 6 5 11 11 11 5 0
7 5 4 10 -3 6 -1 10 4 10 6 0 11 -5 11 -11z m-1040 -424 c0 -5 -5 -3 -10 5 -5
8 -10 20 -10 25 0 6 5 3 10 -5 5 -8 10 -19 10 -25z m-50 -55 c0 -11 -4 -20 -8
-20 -4 0 -8 9 -8 20 0 11 4 20 8 20 4 0 8 -9 8 -20z m90 -5 c7 -9 8 -15 2 -15
-5 0 -12 7 -16 15 -3 8 -4 15 -2 15 2 0 9 -7 16 -15z m-20 -15 c0 -5 -5 -10
-11 -10 -5 0 -7 5 -4 10 3 6 8 10 11 10 2 0 4 -4 4 -10z m40 -22 c0 -4 -7 -8
-15 -8 -8 0 -15 4 -15 8 0 5 7 9 15 9 8 0 15 -4 15 -9z m-120 -38 c0 -5 -4
-10 -10 -10 -5 0 -10 5 -10 10 0 6 5 10 10 10 6 0 10 -4 10 -10z m154 -6 c3
-8 2 -12 -4 -9 -6 3 -10 10 -10 16 0 14 7 11 14 -7z m-64 -28 c14 -18 14 -18
-7 -6 -12 8 -19 18 -16 23 3 4 6 7 7 5 1 -2 8 -12 16 -22z m-124 1 c-16 -12
-16 -14 -2 -26 9 -8 16 -18 16 -23 0 -6 -9 0 -19 13 -19 24 -13 49 12 49 6 0
3 -6 -7 -13z m144 -78 c0 -4 -7 -6 -15 -3 -8 4 -15 10 -15 15 0 4 7 6 15 3 8
-4 15 -10 15 -15z m-34 -7 c8 -5 4 -13 -12 -25 -27 -20 -32 -16 -8 7 10 11 11
16 3 16 -6 0 -18 -8 -26 -17 -13 -16 -13 -16 -3 5 11 23 26 27 46 14z m34 -38
c-1 -4 4 -11 12 -16 9 -7 7 -8 -7 -3 -11 4 -29 7 -40 7 -18 -1 -18 1 5 18 22
17 35 14 30 -6z m120 -59 c4 3 10 -2 14 -10 3 -8 0 -17 -6 -21 -7 -5 -8 -2 -3
6 6 9 4 12 -6 8 -11 -4 -15 2 -16 21 0 14 1 18 4 8 2 -9 8 -15 13 -12z m34 -1
c3 -8 2 -12 -4 -9 -6 3 -10 10 -10 16 0 14 7 11 14 -7z m-64 -4 c0 -5 -7 -10
-15 -10 -8 0 -24 -15 -35 -32 -22 -36 -26 -33 -9 6 6 13 21 29 33 34 27 14 26
14 26 2z m-66 -25 c-4 -8 -10 -15 -15 -15 -4 0 -6 7 -3 15 4 8 10 15 15 15 4
0 6 -7 3 -15z m53 -15 c1 -11 -2 -18 -7 -15 -5 3 -12 -4 -15 -16 -4 -11 -9
-18 -12 -16 -4 5 24 67 30 67 2 0 3 -9 4 -20z m33 6 c0 -3 -4 -8 -10 -11 -5
-3 -10 -1 -10 4 0 6 5 11 10 11 6 0 10 -2 10 -4z"/>
<path d="M1443 6801 c-12 -10 -20 -21 -16 -24 7 -7 53 22 53 34 0 14 -13 10
-37 -10z"/>
<path d="M1446 6771 c-4 -6 -13 -8 -21 -4 -9 3 -15 -1 -15 -11 0 -9 -5 -16
-11 -16 -5 0 -7 6 -3 13 3 6 -6 -1 -21 -16 -20 -21 -24 -32 -16 -40 6 -6 11
-18 10 -26 0 -10 -4 -7 -9 7 -5 12 -14 22 -20 22 -8 0 -8 -6 0 -20 6 -12 7
-20 1 -20 -5 0 -12 6 -14 13 -7 16 -29 -13 -23 -30 3 -6 -1 -14 -9 -17 -10 -3
-12 0 -9 12 5 14 4 14 -4 2 -6 -8 -8 -18 -6 -22 3 -4 -3 -8 -13 -8 -14 0 -15
-2 -4 -9 21 -13 64 17 58 41 -3 10 -1 16 4 12 17 -10 9 -33 -15 -50 -16 -10
-23 -22 -20 -32 5 -15 4 -15 -6 1 -16 24 -31 21 -62 -12 -21 -22 -24 -31 -15
-41 10 -10 8 -12 -5 -7 -25 9 -30 -7 -7 -21 11 -7 19 -8 19 -2 0 5 5 10 11 10
5 0 8 -4 4 -9 -3 -5 3 -12 12 -15 10 -2 3 -3 -15 -1 -22 2 -32 0 -29 -8 2 -7
13 -11 23 -9 18 3 18 3 1 -10 -16 -12 -16 -15 -2 -36 9 -12 21 -22 27 -22 6 0
4 8 -5 18 -10 10 -17 23 -17 28 0 4 7 -1 15 -12 16 -24 64 -22 67 2 0 8 1 20
2 27 1 6 7 17 14 22 7 6 14 17 16 25 5 26 40 100 48 100 4 0 5 7 2 15 -4 8 -1
15 6 15 10 0 10 3 0 15 -7 9 -10 18 -6 22 3 3 6 1 6 -6 0 -7 5 -9 12 -5 7 5 5
11 -8 21 -18 13 -17 14 9 9 15 -3 25 -1 23 3 -3 4 3 25 14 46 11 21 18 40 16
42 -2 3 -7 0 -10 -6z m-41 -49 c-3 -3 -11 0 -18 7 -9 10 -8 11 6 5 10 -3 15
-9 12 -12z m-20 -12 c3 -5 1 -10 -4 -10 -6 0 -11 5 -11 10 0 6 2 10 4 10 3 0
8 -4 11 -10z m-15 -68 c0 -5 -7 -9 -15 -9 -8 0 -15 4 -15 9 0 4 7 8 15 8 8 0
15 -4 15 -8z m0 -29 c-1 -12 -30 -48 -30 -37 0 6 5 15 12 22 7 7 8 12 2 12
-21 0 -33 -23 -23 -43 7 -13 8 -22 1 -29 -12 -12 -32 -2 -32 15 0 7 4 6 10 -3
5 -8 12 -12 15 -9 9 9 -6 40 -16 33 -18 -11 -8 8 14 27 22 19 47 25 47 12z
m-111 -98 c0 -5 -6 1 -14 15 -8 14 -14 30 -14 35 0 6 6 -1 14 -15 8 -14 14
-29 14 -35z m17 40 c9 -8 12 -15 7 -15 -4 0 6 -9 22 -20 31 -21 28 -27 -6 -10
-24 13 -26 -5 -2 -18 14 -9 14 -10 -5 -16 -12 -4 -22 -12 -22 -17 0 -6 5 -7
10 -4 6 3 10 1 10 -5 0 -7 -8 -9 -20 -5 -21 7 -28 -10 -7 -18 9 -4 9 -6 0 -6
-21 -2 -25 20 -8 39 15 17 15 19 -2 29 -10 6 -13 11 -6 11 6 0 15 -4 18 -10 3
-5 11 -10 17 -10 6 0 6 6 -2 15 -7 9 -10 18 -6 22 3 3 -1 17 -9 30 -17 26 -11
31 11 8z m-42 -30 c3 -8 1 -15 -3 -15 -5 0 -11 7 -15 15 -3 8 -1 15 3 15 5 0
11 -7 15 -15z"/>
<path d="M1160 6484 c0 -13 22 -44 32 -44 7 0 6 5 -2 15 -6 8 -9 19 -5 25 3 5
-1 10 -9 10 -9 0 -16 -3 -16 -6z"/>
<path d="M1128 6440 c-14 -25 -15 -30 -2 -41 8 -6 18 -8 22 -4 4 4 1 10 -5 12
-7 3 -13 9 -13 15 0 6 6 6 15 -2 20 -17 19 -21 -10 -52 -25 -28 -33 -44 -15
-33 6 3 10 1 10 -5 0 -7 -8 -9 -20 -5 -11 3 -20 3 -20 0 0 -10 28 -35 39 -35
6 0 11 -4 11 -10 0 -16 -22 -7 -45 19 l-22 25 28 24 c31 25 41 54 12 31 -16
-13 -17 -12 -4 4 8 11 9 17 2 17 -6 0 -13 -11 -17 -25 -3 -14 -11 -22 -17 -18
-6 3 -7 1 -3 -5 4 -7 4 -12 -1 -12 -4 0 -13 -11 -20 -25 -9 -21 -8 -29 9 -50
19 -24 19 -27 4 -44 -9 -10 -16 -22 -16 -27 0 -20 -42 -55 -58 -49 -8 3 -19 0
-24 -7 -11 -18 -10 -28 3 -28 5 0 7 5 4 10 -3 6 -1 10 5 10 7 0 9 -7 6 -16 -3
-9 -6 -17 -6 -20 0 -2 -8 -1 -17 2 -15 5 -15 3 2 -12 16 -14 17 -16 3 -11 -12
4 -22 -1 -29 -16 -11 -20 -11 -21 5 -8 14 12 16 12 11 0 -4 -10 2 -15 15 -16
19 -2 28 11 13 20 -5 2 -2 2 5 1 8 -3 10 4 6 21 -4 18 -1 27 10 31 9 3 13 10
10 15 -5 8 10 13 20 7 2 -2 13 6 25 16 20 18 22 18 41 1 19 -17 21 -17 40 0
16 14 23 16 32 7 19 -19 27 -14 22 16 -3 15 -5 34 -5 44 0 9 -9 24 -20 34 -21
19 -26 44 -8 44 5 0 8 -4 5 -9 -4 -5 6 -23 20 -40 14 -17 21 -31 14 -31 -6 0
-8 -5 -5 -10 11 -17 26 0 19 22 -5 15 -3 19 7 13 8 -5 11 -5 7 0 -4 4 2 25 13
46 11 22 16 39 13 39 -4 0 1 10 12 21 19 22 19 22 -4 10 -14 -8 -21 -18 -18
-27 3 -8 1 -14 -4 -14 -6 0 -10 6 -10 13 1 16 25 47 38 47 5 0 12 7 16 15 6
17 -15 20 -30 5 -14 -14 -42 -3 -49 18 -3 10 -18 27 -33 39 l-28 21 -16 -28z
m60 -26 c2 -1 0 -4 -5 -7 -4 -3 -17 7 -27 22 l-20 26 25 -20 c13 -11 25 -21
27 -21z m34 -66 c-15 -15 -29 -2 -29 26 0 23 0 23 19 4 14 -14 17 -23 10 -30z
m-50 25 c-10 -4 -8 -11 9 -29 12 -13 26 -21 30 -18 5 3 9 0 9 -5 0 -14 -13
-14 -28 1 -6 6 -15 8 -19 4 -4 -4 -1 -12 7 -17 13 -9 13 -10 0 -6 -8 2 -14 14
-13 26 2 11 -2 21 -7 21 -6 0 -10 -5 -10 -12 0 -6 -3 -8 -6 -5 -4 4 1 18 10
33 10 14 21 22 24 18 4 -3 1 -9 -6 -11z m-22 -63 c0 -5 -5 -10 -11 -10 -5 0
-7 5 -4 10 3 6 8 10 11 10 2 0 4 -4 4 -10z m-66 -31 c-3 -5 0 -9 5 -9 6 0 11
-5 11 -11 0 -8 -5 -8 -15 1 -8 7 -12 16 -9 21 3 5 0 9 -5 9 -6 0 -11 5 -11 11
0 8 5 8 15 -1 8 -7 12 -16 9 -21z m146 6 c0 -8 -2 -15 -4 -15 -2 0 -6 7 -10
15 -3 8 -1 15 4 15 6 0 10 -7 10 -15z m-34 -4 c-4 -5 0 -11 6 -14 7 -2 9 -8 5
-13 -4 -5 -12 -2 -17 6 -13 20 -12 30 1 30 5 0 8 -4 5 -9z m-49 -37 c2 -6 -4
-14 -13 -18 -15 -6 -15 -4 -3 11 12 15 12 16 -3 10 -10 -3 -18 -2 -18 4 0 14
32 7 37 -7z m-54 -30 c-16 -12 -15 -13 15 -9 18 2 40 9 48 16 10 8 14 8 14 0
0 -6 -5 -11 -11 -11 -5 0 -8 -4 -5 -9 3 -5 -13 -8 -37 -7 -23 0 -40 5 -38 11
2 6 6 16 8 22 3 7 9 10 15 7 5 -3 1 -12 -9 -20z m-15 -38 c-2 -1 -12 -8 -22
-16 -18 -14 -18 -14 -6 7 8 12 18 19 23 16 4 -3 7 -6 5 -7z m105 0 c4 -10 1
-13 -8 -9 -8 3 -12 9 -9 14 7 12 11 11 17 -5z m-69 -8 c5 -10 7 -10 12 0 3 6
11 12 17 12 6 0 4 -8 -6 -17 -16 -16 -18 -16 -34 0 -10 9 -12 17 -6 17 6 0 14
-6 17 -12z"/>
<path d="M1200 6360 c0 -5 5 -10 11 -10 5 0 7 5 4 10 -3 6 -8 10 -11 10 -2 0
-4 -4 -4 -10z"/>
<path d="M1011 6230 c-37 -71 -20 -112 19 -47 22 35 25 47 11 47 -5 0 -14 -13
-20 -30 -5 -16 -13 -30 -16 -30 -3 0 2 16 10 36 8 20 15 39 15 41 0 3 7 0 15
-7 21 -17 31 -5 12 15 -21 21 -22 20 -46 -25z"/>
<path d="M1073 6128 c2 -13 2 -17 0 -10 -11 32 -71 -11 -70 -50 0 -12 -3 -31
-7 -40 -6 -13 -4 -18 8 -18 9 0 19 0 23 -1 4 0 9 4 11 10 2 7 -4 9 -15 5 -13
-4 -14 -3 -5 4 8 5 13 12 13 16 -3 22 1 25 18 14 18 -11 18 -12 -3 -45 -11
-18 -25 -33 -29 -33 -5 0 -5 5 -2 10 3 6 0 10 -7 10 -8 0 -19 5 -26 12 -23 23
-52 19 -62 -8 -6 -14 -7 -30 -4 -36 3 -5 -2 -16 -12 -23 -22 -17 -11 -20 16
-5 15 8 20 6 25 -9 3 -11 12 -25 21 -32 12 -10 19 -8 38 10 21 20 27 21 45 9
12 -7 21 -16 21 -20 0 -5 4 -8 9 -8 13 0 10 41 -3 60 -10 13 -9 13 6 2 16 -12
18 -36 8 -77 -4 -19 0 -35 10 -35 5 0 7 7 4 15 -4 8 -1 15 7 15 7 0 9 3 6 7
-4 3 -1 13 6 21 9 13 9 14 0 8 -7 -4 -13 -3 -13 3 0 5 5 13 10 16 6 4 8 11 5
16 -4 5 -2 9 3 9 9 0 12 10 15 64 1 19 5 32 8 30 4 -2 9 5 12 16 3 13 0 20
-10 20 -8 0 -11 -4 -8 -10 11 -18 -4 -11 -28 14 -14 14 -22 27 -19 30 3 3 11
-3 18 -13 9 -13 21 -17 40 -13 l26 5 -21 20 c-11 12 -24 18 -28 13 -4 -4 -1
-11 7 -16 8 -6 10 -10 5 -10 -6 0 -22 11 -37 25 -33 31 -39 31 -35 3z m-17
-33 c-4 -12 0 -14 18 -9 30 7 51 -24 52 -77 0 -33 -1 -36 -18 -26 -23 15 -23
23 -1 36 15 8 16 12 3 35 -7 14 -20 26 -29 26 -9 0 -12 -3 -6 -8 6 -4 17 -16
25 -27 8 -11 11 -17 6 -13 -13 11 -57 -48 -50 -66 3 -9 1 -16 -4 -16 -23 0
-20 19 9 58 l29 40 -28 21 c-22 15 -32 17 -40 9 -9 -9 -12 -9 -12 0 0 11 13
16 33 13 4 0 7 4 7 9 0 6 3 10 6 10 3 0 4 -7 0 -15z m-100 -102 c4 -10 8 -26
9 -35 1 -10 8 -24 15 -33 7 -8 8 -15 2 -15 -11 0 -25 26 -27 52 -1 10 -8 24
-15 33 -7 8 -8 15 -2 15 5 0 13 -8 18 -17z m38 -12 c-2 -3 -12 3 -22 13 -16
17 -16 18 5 5 12 -7 20 -15 17 -18z m-56 -16 c-3 -3 -9 2 -12 12 -6 14 -5 15
5 6 7 -7 10 -15 7 -18z m178 -12 c-6 -6 -46 20 -46 30 0 4 11 0 25 -9 14 -9
24 -19 21 -21z m-110 0 c-6 20 9 23 17 3 7 -18 -24 -31 -35 -14 -14 23 -8 32
8 12 13 -16 15 -16 10 -1z m64 -23 c0 -5 -2 -10 -4 -10 -3 0 -8 5 -11 10 -3 6
-1 10 4 10 6 0 11 -4 11 -10z"/>
<path d="M1105 6000 c3 -5 8 -10 11 -10 2 0 4 5 4 10 0 6 -5 10 -11 10 -5 0
-7 -4 -4 -10z"/>
<path d="M1150 6141 c0 -12 26 -32 33 -25 3 4 0 13 -8 20 -16 16 -25 18 -25 5z"/>
<path d="M1035 6040 c3 -5 8 -10 11 -10 2 0 4 5 4 10 0 6 -5 10 -11 10 -5 0
-7 -4 -4 -10z"/>
<path d="M902 5918 c-7 -7 -12 -19 -12 -28 0 -9 -5 -21 -12 -28 -9 -9 -3 -10
25 -7 20 3 39 0 42 -5 10 -16 23 -12 56 20 35 33 47 32 47 -5 0 -23 -2 -24
-13 -8 -13 17 -15 17 -39 -6 -18 -17 -30 -21 -43 -16 -28 13 -63 15 -63 4 0
-5 5 -9 12 -9 6 0 8 -3 5 -6 -4 -4 -12 -2 -20 4 -10 8 -13 6 -14 -9 -1 -12 2
-17 10 -13 7 4 9 3 4 -1 -4 -5 0 -19 8 -32 9 -13 11 -23 6 -23 -5 0 -13 9 -16
20 -8 26 -20 26 -22 0 -1 -13 2 -18 10 -13 7 3 4 -3 -6 -14 -17 -19 -17 -21 1
-43 l19 -23 33 31 c34 33 50 40 50 21 0 -5 -5 -7 -12 -3 -8 5 -9 2 -5 -10 4
-11 3 -15 -4 -10 -6 3 -21 -4 -34 -16 -21 -20 -25 -21 -47 -6 l-23 15 1 -64
c0 -36 -3 -71 -7 -77 -5 -8 0 -18 14 -26 19 -10 19 -12 3 -10 -11 2 -20 -4
-21 -15 -2 -9 1 -15 6 -11 5 3 9 1 9 -5 0 -5 -5 -13 -10 -16 -6 -4 -8 -11 -5
-16 4 -5 13 -3 21 5 15 16 44 11 44 -6 0 -6 -6 -6 -14 1 -11 9 -17 8 -28 -8
-8 -12 -17 -19 -20 -16 -2 3 -5 -2 -5 -10 0 -8 5 -15 10 -15 5 0 4 -6 -2 -14
-10 -12 -8 -17 9 -26 16 -9 21 -8 26 4 5 13 9 13 23 -4 16 -20 16 -20 46 4 17
13 27 27 23 31 -4 4 -17 -2 -29 -14 -17 -15 -25 -18 -30 -9 -4 7 -5 16 -2 22
4 5 -1 7 -10 3 -11 -4 -14 -2 -10 9 3 7 0 14 -6 14 -6 0 -11 -4 -11 -10 0 -5
-5 -10 -10 -10 -6 0 -5 8 2 20 12 19 13 19 34 -1 21 -20 22 -20 33 -2 6 10 11
14 11 9 0 -5 -7 -18 -17 -28 -9 -11 -11 -18 -5 -18 7 0 17 9 24 19 9 15 16 17
25 9 16 -13 71 31 67 54 -1 9 5 25 13 35 13 16 13 16 3 -6 -10 -18 -9 -22 1
-19 14 5 21 58 8 58 -5 0 -14 -9 -21 -20 -7 -11 -17 -20 -22 -20 -5 0 0 10 12
23 12 13 22 30 22 38 0 11 2 11 9 1 5 -8 8 6 8 35 1 58 5 75 18 86 6 5 -1 6
-15 3 -24 -5 -24 -4 -6 10 12 8 20 27 21 47 1 17 7 42 13 54 14 26 15 36 3 28
-5 -3 -12 4 -16 15 -4 11 -11 18 -16 15 -5 -4 -9 -2 -9 4 0 5 5 11 11 13 5 2
-1 14 -15 27 l-24 23 -33 -31 c-37 -35 -42 -37 -63 -16 -17 17 -30 20 -21 5 3
-5 1 -10 -4 -10 -13 0 -14 10 -3 28 6 9 14 7 31 -9 12 -12 25 -18 29 -14 4 4
-3 15 -15 25 -12 9 -19 20 -16 24 4 3 0 6 -8 6 -8 0 -20 -5 -27 -12z m133 -82
c8 -7 11 -16 8 -20 -4 -3 -1 -6 6 -6 7 0 9 -4 6 -10 -3 -5 -2 -10 3 -10 6 0
13 -7 16 -15 5 -13 1 -12 -18 2 -13 10 -22 20 -20 22 2 3 -3 15 -11 28 -17 25
-11 31 10 9z m55 -40 c0 -6 -7 -1 -15 10 -8 10 -15 23 -15 28 0 6 7 1 15 -10
8 -10 15 -23 15 -28z m-150 24 c0 -5 -2 -10 -4 -10 -3 0 -8 5 -11 10 -3 6 -1
10 4 10 6 0 11 -4 11 -10z m71 0 c1 -5 2 -15 3 -20 0 -6 15 -21 31 -35 17 -13
24 -24 18 -25 -7 0 -13 5 -13 12 0 6 -8 4 -20 -7 -10 -9 -18 -20 -18 -24 1 -3
-2 -17 -6 -30 -6 -19 -4 -28 10 -38 18 -14 18 -15 2 -27 -10 -7 -18 -19 -18
-27 0 -11 2 -11 10 1 16 24 11 2 -6 -31 -8 -17 -13 -33 -10 -36 7 -7 30 18 34
37 2 8 9 18 15 22 9 6 9 8 0 8 -7 0 -13 5 -13 11 0 8 5 7 15 -1 14 -12 14 -15
0 -30 -8 -9 -13 -19 -10 -22 3 -3 -4 -13 -15 -23 -20 -18 -21 -18 -50 10 -16
16 -33 25 -37 21 -4 -4 -1 -12 7 -17 13 -9 13 -10 -1 -6 -12 4 -15 -3 -15 -34
1 -26 5 -38 13 -35 7 3 10 -1 6 -9 -3 -8 -9 -13 -13 -10 -5 3 -11 -3 -14 -12
-2 -10 -3 -3 -1 15 3 28 1 33 -13 28 -15 -5 -15 -4 1 8 9 7 17 19 17 27 0 11
-2 11 -10 -1 -16 -24 -11 -2 6 31 8 17 13 33 10 36 -5 5 -43 -28 -38 -34 10
-14 -2 -21 -18 -11 -11 7 -20 17 -20 22 0 6 5 5 12 -2 21 -21 29 -13 12 13
-15 23 -13 30 9 26 4 0 7 4 7 9 0 6 5 10 12 10 6 0 4 -7 -5 -18 -24 -26 -21
-39 3 -17 20 18 21 18 50 -10 16 -16 33 -25 37 -21 4 4 1 12 -7 17 -13 9 -13
10 1 6 24 -8 18 54 -7 68 -20 11 -44 38 -39 43 1 2 18 -11 36 -27 37 -34 62
-42 34 -11 -11 12 -15 26 -10 37 12 32 16 63 6 63 -5 0 -12 -5 -14 -10 -3 -6
-4 -5 -3 2 2 7 13 12 25 11 21 -3 30 12 10 19 -5 2 -12 12 -14 23 -2 11 -4 22
-4 25 -1 3 -6 -2 -11 -10 -5 -8 -10 -10 -10 -4 0 21 29 34 31 14z m-44 -20 c1
-11 -2 -20 -5 -20 -4 0 -8 9 -9 20 -1 11 2 20 5 20 4 0 8 -9 9 -20z m-48 3
c-3 -20 2 -26 11 -13 6 9 10 10 10 3 0 -19 -21 -27 -31 -12 -12 19 -11 29 1
29 6 0 9 -3 9 -7z m76 -23 c3 -5 1 -10 -4 -10 -6 0 -11 5 -11 10 0 6 2 10 4
10 3 0 8 -4 11 -10z m-25 -21 c0 -5 -4 -7 -10 -4 -5 3 -24 -8 -41 -25 -20 -19
-36 -27 -42 -21 -12 12 0 31 16 25 7 -2 22 4 32 16 19 21 45 27 45 9z m87 -51
c-30 -22 -35 -38 -12 -38 8 0 15 -4 15 -10 0 -6 -9 -5 -24 1 -21 10 -23 14
-13 30 7 11 16 19 22 19 5 0 4 4 -4 9 -9 6 -5 9 15 9 l28 0 -27 -20z m-67 2
c0 -5 -5 -10 -11 -10 -5 0 -7 5 -4 10 3 6 8 10 11 10 2 0 4 -4 4 -10z m-10
-30 c0 -5 -2 -10 -4 -10 -3 0 -8 5 -11 10 -3 6 -1 10 4 10 6 0 11 -4 11 -10z
m-46 -26 c10 -26 7 -29 -10 -8 -13 16 -15 16 -10 2 3 -10 1 -18 -4 -18 -11 0
-13 23 -3 33 11 11 20 8 27 -9z m-47 -8 c0 -7 -9 -18 -19 -25 -11 -7 -18 -7
-18 -1 0 5 5 10 11 10 5 0 8 4 5 9 -4 5 0 12 6 14 7 3 13 6 14 6 0 1 1 -5 1
-13z m93 -27 c0 -4 -7 -6 -15 -3 -8 4 -15 10 -15 15 0 4 7 6 15 3 8 -4 15 -10
15 -15z m-24 -14 c16 -8 22 -15 14 -15 -8 1 -24 7 -34 15 -25 19 -16 19 20 0z
m28 -90 c25 -19 16 -19 -20 0 -16 8 -22 15 -14 15 8 -1 24 -7 34 -15z m-104
-15 c-8 -5 -17 -7 -19 -4 -3 3 1 9 9 14 8 5 17 7 19 4 3 -3 -1 -9 -9 -14z m90
-11 c0 -4 -7 -6 -15 -3 -8 4 -15 10 -15 15 0 4 7 6 15 3 8 -4 15 -10 15 -15z
m36 -16 c-3 9 -1 17 4 17 14 0 13 -27 -1 -36 -6 -3 -15 0 -20 7 -15 24 -10 34
7 13 13 -16 15 -16 10 -1z m-23 -43 c-3 -3 -8 1 -10 8 -3 6 -9 10 -14 6 -10
-6 -12 9 -2 19 3 4 12 -1 19 -11 7 -9 10 -19 7 -22z m-113 -40 c0 -5 -5 -10
-11 -10 -5 0 -7 5 -4 10 3 6 8 10 11 10 2 0 4 -4 4 -10z"/>
<path d="M2403 5475 c-8 -19 -8 -25 1 -25 6 0 13 11 14 25 2 31 0 31 -15 0z"/>
<path d="M1043 5461 c2 -9 -62 -73 -99 -97 -14 -10 -20 -22 -17 -34 3 -12 0
-20 -6 -20 -7 0 -10 4 -7 8 7 12 -24 53 -35 47 -13 -9 -11 -25 3 -22 6 1 14
-6 16 -15 2 -10 -1 -18 -7 -18 -6 0 -7 7 -4 17 4 11 3 14 -5 9 -7 -4 -15 -1
-18 8 -11 29 -19 16 -20 -34 -2 -45 0 -49 16 -40 20 11 50 4 50 -11 0 -5 4 -9
10 -9 5 0 9 10 7 21 -1 12 5 24 13 26 13 4 13 3 0 -6 -8 -5 -11 -13 -7 -17 3
-4 13 -1 22 6 8 7 15 8 15 4 0 -5 -10 -15 -22 -23 -21 -13 -21 -14 -3 -27 10
-7 22 -11 26 -8 5 3 9 0 9 -5 0 -15 -13 -14 -36 4 -32 24 -41 16 -10 -10 23
-18 34 -21 48 -14 10 6 16 14 12 20 -3 5 0 17 7 25 6 8 9 18 5 21 -4 4 -12 1
-17 -7 -9 -13 -10 -13 -6 0 2 8 14 14 26 13 21 -3 30 12 10 19 -5 2 -11 11
-13 20 -3 21 -16 36 -16 19 0 -7 -5 -9 -11 -5 -8 4 -6 10 6 17 17 9 39 -8 29
-24 -2 -4 3 -12 12 -19 13 -12 14 -10 10 14 -3 15 -10 34 -17 42 -8 10 -8 14
0 14 6 0 11 -5 11 -10 0 -6 8 -5 20 2 18 12 21 50 6 66 -3 2 -1 13 5 23 7 15
6 19 -6 19 -8 0 -14 -4 -12 -9z m12 -51 c3 -6 -1 -7 -9 -4 -9 3 -16 1 -16 -4
0 -6 6 -12 13 -15 6 -2 3 -3 -7 -1 -11 2 -35 -10 -54 -26 -20 -16 -38 -27 -41
-24 -3 3 3 10 13 16 10 6 32 24 49 39 32 31 42 35 52 19z m-191 -120 c-5 -5
-10 3 -11 18 -1 22 0 24 9 8 6 -10 6 -22 2 -26z m106 20 c0 -5 -7 -7 -15 -4
-8 4 -15 8 -15 10 0 2 7 4 15 4 8 0 15 -4 15 -10z m25 -10 c3 -5 1 -10 -4 -10
-6 0 -11 5 -11 10 0 6 2 10 4 10 3 0 8 -4 11 -10z m-85 -10 c0 -5 -2 -10 -4
-10 -3 0 -8 5 -11 10 -3 6 -1 10 4 10 6 0 11 -4 11 -10z m60 -40 c0 -5 -5 -10
-11 -10 -5 0 -7 5 -4 10 3 6 8 10 11 10 2 0 4 -4 4 -10z"/>
<path d="M1050 5350 c-13 -9 -13 -11 0 -20 10 -6 11 -10 3 -10 -7 0 -10 -6 -7
-13 2 -7 -5 -26 -18 -42 -12 -16 -23 -35 -23 -43 0 -8 -10 -21 -21 -29 -19
-12 -25 -11 -54 14 -31 26 -33 26 -46 8 -8 -10 -14 -14 -14 -9 0 6 6 16 13 23
10 11 9 13 -6 8 -11 -4 -16 -3 -12 4 4 5 16 7 28 3 21 -6 21 -5 5 12 -14 14
-20 15 -31 5 -19 -15 -15 -83 4 -89 8 -3 11 -1 7 3 -4 4 -1 14 7 21 21 22 27
16 10 -9 -8 -13 -12 -27 -8 -32 5 -4 1 -6 -9 -2 -14 5 -15 1 -8 -24 5 -16 6
-29 2 -29 -3 0 3 -7 14 -15 12 -10 14 -14 4 -12 -8 2 -12 2 -7 0 4 -3 7 -18 7
-34 0 -34 17 -38 30 -6 5 12 9 16 9 8 1 -8 -6 -23 -16 -33 -15 -17 -15 -18 5
-18 12 0 21 6 19 13 -1 6 6 11 16 11 10 -1 16 3 14 10 -3 6 -10 10 -16 9 -6
-2 -11 2 -11 7 0 16 16 12 36 -11 17 -19 19 -19 31 -3 17 24 16 13 -2 -22 -9
-17 -15 -22 -15 -13 0 11 -9 17 -25 17 -13 0 -23 -5 -22 -11 1 -6 -9 -14 -23
-18 -14 -4 -20 -7 -13 -8 7 -1 10 -8 6 -18 -4 -14 -1 -13 16 5 12 12 26 20 31
17 4 -3 10 -2 13 2 2 5 3 3 1 -3 -1 -7 9 -11 27 -9 20 1 37 12 53 34 23 31 24
32 31 11 5 -15 1 -29 -13 -43 -22 -25 -26 -61 -6 -53 8 3 11 0 7 -10 -3 -7 -1
-14 5 -14 6 0 13 6 15 13 4 9 6 9 6 0 2 -21 -20 -25 -40 -7 -10 9 -17 19 -15
21 7 7 -33 43 -46 43 -9 0 -8 -4 2 -10 8 -5 10 -10 5 -10 -6 0 -20 7 -32 15
-18 13 -22 13 -33 0 -6 -8 -8 -20 -4 -26 4 -7 3 -9 -3 -6 -14 9 0 -58 16 -77
6 -7 7 -17 3 -21 -4 -5 -2 -5 4 -2 7 4 15 0 18 -9 4 -10 2 -13 -6 -8 -7 5 -8
3 -4 -5 5 -7 15 -10 24 -6 13 5 13 3 -1 -13 -16 -18 -16 -20 -2 -26 9 -3 14
-2 11 3 -3 5 1 14 9 21 10 9 15 9 15 1 0 -6 -5 -11 -10 -11 -6 0 -9 -3 -8 -7
0 -5 -2 -15 -6 -24 -4 -10 1 -29 12 -48 18 -29 20 -30 33 -14 13 15 12 16 -6
9 -11 -4 -16 -4 -12 0 4 4 -1 12 -10 19 -15 11 -15 14 5 39 12 16 18 35 15 44
-4 13 -2 12 10 -3 15 -20 16 -20 40 4 14 12 30 20 36 17 6 -4 22 4 35 17 14
14 27 23 30 20 8 -8 -53 -55 -63 -49 -5 3 -21 -4 -35 -15 -24 -19 -25 -22 -10
-33 11 -9 14 -19 9 -35 -6 -21 -8 -21 -19 -5 -15 19 -56 30 -56 14 0 -9 14
-14 33 -11 7 1 11 -15 8 -33 -1 -5 5 -6 13 -3 10 4 13 1 9 -9 -7 -20 4 -18 29
6 12 11 24 17 27 15 2 -3 -6 -13 -19 -22 -21 -15 -22 -17 -6 -29 11 -8 13 -14
7 -19 -6 -3 -11 -2 -11 3 0 4 -13 18 -29 30 -25 18 -30 19 -35 6 -3 -9 -2 -12
5 -9 6 4 9 1 8 -6 -3 -17 21 -69 32 -69 4 0 10 6 12 13 3 6 4 -1 2 -18 -2 -28
24 -79 50 -97 5 -4 6 -8 1 -8 -5 0 -1 -9 9 -20 20 -22 24 -23 44 -11 11 7 10
13 -8 32 -12 13 -17 25 -12 27 6 2 12 2 14 0 4 -4 37 29 37 37 0 4 -7 5 -14 2
-11 -4 -13 -1 -9 10 4 9 2 14 -3 10 -6 -3 -15 -2 -22 2 -9 5 -7 12 8 27 11 10
31 30 46 44 39 38 46 56 29 73 -8 8 -11 17 -8 21 4 3 1 6 -6 6 -7 0 -10 4 -7
9 4 5 3 11 -1 13 -7 3 -45 73 -48 88 0 3 -6 15 -13 26 -6 12 -8 24 -5 28 3 3
1 6 -6 6 -6 0 -11 7 -9 16 2 10 -3 19 -10 21 -7 3 -10 -1 -6 -11 3 -9 1 -16
-6 -16 -6 0 -8 5 -5 10 3 6 1 10 -4 10 -6 0 -11 -5 -11 -11 0 -6 -7 -3 -16 5
-8 9 -20 16 -25 16 -5 0 -9 5 -9 11 0 6 9 4 22 -5 22 -16 58 -6 58 15 0 6 -6
6 -17 1 -20 -10 -43 -5 -43 8 0 5 10 14 23 20 20 10 21 10 4 -3 -10 -9 -14
-18 -9 -21 17 -11 34 21 23 42 -6 11 -8 22 -5 24 2 3 -3 11 -13 19 -15 12 -16
12 -10 -3 3 -10 2 -18 -3 -18 -6 0 -10 6 -10 14 0 7 -7 20 -16 27 -14 11 -18
10 -30 -5 -12 -18 -13 -17 -11 2 0 11 4 19 7 17 14 -9 33 15 35 44 3 31 2 31
-16 15 -18 -16 -20 -16 -38 0 -18 17 -20 17 -30 -1 -6 -10 -11 -14 -11 -9 0 5
7 18 17 28 9 10 11 18 6 18 -18 0 -34 -27 -38 -62 -4 -31 -3 -32 10 -14 8 11
15 16 16 10 0 -5 5 0 10 11 7 16 8 13 5 -12 -2 -18 0 -33 5 -33 5 0 9 -5 9
-11 0 -5 -4 -8 -9 -4 -5 3 -12 -3 -15 -12 -2 -10 -3 -3 -1 15 2 22 0 32 -8 29
-7 -2 -11 -13 -9 -23 2 -18 2 -18 -10 1 -12 19 -22 102 -11 91 3 -3 15 4 26
15 15 14 23 16 28 7 4 -7 5 -16 2 -22 -4 -5 1 -7 10 -3 11 4 14 2 10 -9 -7
-18 4 -18 24 1 12 12 18 13 29 4 20 -17 17 -6 -6 21 -11 13 -20 28 -20 33 0 6
7 2 16 -9 14 -18 15 -18 4 4 -6 12 -8 27 -5 32 3 6 2 10 -4 10 -5 0 -14 -8
-20 -17 -7 -14 -13 -15 -22 -6 -14 14 -2 36 15 30 7 -3 19 -1 27 4 11 7 11 9
-3 9 -11 0 -18 7 -17 18 0 10 3 12 6 5 9 -23 23 -14 15 10 -5 12 -7 32 -6 45
0 12 1 22 0 22 0 0 -8 -5 -16 -10z m4 -177 c8 -19 -18 -5 -32 17 -11 19 -11
19 8 8 11 -7 22 -18 24 -25z m-115 8 c9 -6 10 -11 2 -15 -6 -4 -11 -2 -11 5 0
17 -13 2 -16 -19 -2 -9 -8 -18 -13 -20 -20 -7 -11 -22 10 -19 12 1 23 -4 25
-11 1 -7 0 -8 -3 -2 -8 17 -25 11 -19 -7 6 -14 2 -13 -15 4 -23 22 -23 22 -3
44 10 11 18 23 17 25 -13 20 3 29 26 15z m1 -41 c0 -5 -5 -10 -11 -10 -5 0 -7
5 -4 10 3 6 8 10 11 10 2 0 4 -4 4 -10z m120 -42 c0 -4 -9 -8 -20 -8 -11 0
-20 4 -20 8 0 4 9 8 20 8 11 0 20 -4 20 -8z m-115 -28 c3 -5 1 -10 -4 -10 -6
0 -11 5 -11 10 0 6 2 10 4 10 3 0 8 -4 11 -10z m-32 -20 c-3 -12 -8 -19 -11
-16 -5 6 5 36 12 36 2 0 2 -9 -1 -20z m135 -35 c-23 -35 -42 -47 -32 -20 4 8
11 15 17 15 6 0 8 3 4 6 -6 7 13 33 26 34 4 0 -3 -16 -15 -35z m72 -9 c0 -3
-4 -8 -10 -11 -5 -3 -10 -1 -10 4 0 6 5 11 10 11 6 0 10 -2 10 -4z m-118 -80
c22 -1 39 -26 18 -26 -6 0 -8 5 -5 10 11 18 -11 11 -29 -9 -17 -18 -17 -20 1
-30 10 -6 14 -11 9 -11 -5 0 -18 7 -28 17 -10 9 -18 12 -18 6 0 -11 59 -63 73
-63 4 0 5 -5 1 -11 -4 -8 -9 -7 -15 2 -5 8 -9 10 -9 6 0 -4 -13 7 -29 26 -29
32 -34 58 -16 74 4 4 5 3 1 -4 -9 -17 7 -23 21 -8 10 11 9 15 -7 20 -11 4 -20
11 -20 17 0 6 6 6 15 -2 9 -7 25 -13 37 -14z m56 -53 c7 -7 10 -13 5 -13 -5 0
-14 5 -21 12 -7 7 -12 8 -12 2 0 -5 5 -15 12 -22 7 -7 8 -12 4 -12 -5 0 -1
-11 8 -25 9 -14 12 -25 7 -25 -5 0 -12 8 -16 19 -3 10 -15 23 -28 30 -22 11
-22 11 3 6 24 -6 24 -5 6 9 -11 9 -16 16 -10 17 5 0 0 4 -11 9 -17 7 -15 8 10
7 17 -1 36 -7 43 -14z m82 9 c0 -5 -7 -9 -15 -9 -8 0 -15 4 -15 9 0 4 7 8 15
8 8 0 15 -4 15 -8z m24 -7 c3 -8 1 -15 -4 -15 -6 0 -10 7 -10 15 0 8 2 15 4
15 2 0 6 -7 10 -15z m-64 -15 c0 -5 -2 -10 -4 -10 -3 0 -8 5 -11 10 -3 6 -1
10 4 10 6 0 11 -4 11 -10z m45 -20 c0 -8 -8 -15 -18 -16 -12 -1 -13 -1 -2 3 8
2 15 9 15 15 0 5 -7 8 -15 4 -8 -3 -15 -1 -15 5 0 6 8 9 18 7 9 -2 17 -10 17
-18z m-71 -5 c-7 -17 11 -21 19 -5 3 6 4 5 3 -2 -4 -19 -30 -16 -34 5 -2 9 1
17 7 17 6 0 8 -7 5 -15z m112 -24 c-4 -5 -3 -11 1 -14 5 -2 3 -2 -4 -1 -15 4
-38 -24 -28 -34 4 -4 10 -1 12 6 3 6 9 12 14 12 6 0 7 -4 4 -10 -3 -5 -2 -10
4 -10 5 0 12 5 14 10 3 6 4 5 3 -2 -2 -8 -18 -13 -39 -14 -20 0 -43 -6 -51
-14 -9 -7 -16 -10 -16 -7 0 3 -3 12 -6 20 -3 8 2 17 12 21 14 5 15 4 4 -9 -7
-8 -9 -15 -4 -15 12 0 42 20 31 20 -4 0 5 11 20 25 30 26 38 30 29 16z m38
-93 c-3 -4 0 -8 6 -8 6 0 8 -5 4 -11 -4 -8 -9 -7 -15 2 -4 7 -5 17 -3 21 3 4
0 8 -6 8 -6 0 -8 5 -4 11 4 8 9 7 15 -2 4 -7 5 -17 3 -21z m-74 12 c0 -5 -2
-10 -4 -10 -3 0 -8 5 -11 10 -3 6 -1 10 4 10 6 0 11 -4 11 -10z m33 3 c-7 -2
-13 -9 -13 -15 0 -6 8 -7 17 -4 15 6 15 4 -1 -13 -15 -17 -16 -24 -7 -35 7 -8
18 -13 26 -10 18 7 28 -12 17 -32 -6 -11 -11 -13 -16 -5 -4 6 -2 11 3 11 6 0
11 4 11 9 0 5 -11 9 -25 9 -25 0 -34 -12 -15 -21 6 -3 5 -4 -2 -3 -7 2 -12 13
-11 25 3 25 -3 26 -23 6 -9 -8 -20 -15 -26 -15 -6 0 0 8 12 18 26 21 21 38
-14 52 -16 7 -17 9 -4 9 9 1 23 -6 32 -14 19 -20 30 -19 22 1 -7 19 1 34 17
33 9 0 9 -2 0 -6z m-73 -37 c0 -3 -4 -8 -10 -11 -5 -3 -10 -1 -10 4 0 6 5 11
10 11 6 0 10 -2 10 -4z m131 -26 c5 0 9 -5 9 -10 0 -6 -10 -4 -23 5 -13 8 -27
12 -30 8 -4 -3 -7 -2 -7 4 0 18 12 22 27 8 8 -8 19 -15 24 -15z m24 10 c3 -6
-1 -7 -9 -4 -18 7 -21 14 -7 14 6 0 13 -4 16 -10z m-115 -50 c0 -5 -5 -10 -11
-10 -5 0 -7 5 -4 10 3 6 8 10 11 10 2 0 4 -4 4 -10z m-70 -10 c13 -8 13 -11 1
-22 -9 -8 -12 -9 -7 -1 3 6 -2 16 -11 22 -10 6 -13 10 -8 11 6 0 17 -5 25 -10z
m92 -39 l-24 -26 23 -18 22 -18 -21 -15 c-20 -14 -21 -17 -7 -37 19 -27 20
-42 1 -25 -8 7 -12 15 -10 17 2 3 -6 15 -18 28 -12 13 -16 23 -10 23 7 0 12 5
12 11 0 6 -7 9 -15 5 -8 -3 -15 -1 -15 5 0 6 8 9 18 7 11 -3 16 -12 14 -28 -3
-24 -2 -24 15 -7 17 18 17 19 -6 38 -12 10 -27 16 -32 13 -5 -3 -9 0 -9 7 0 6
8 9 20 6 13 -3 24 1 30 14 7 13 7 19 0 19 -5 0 -10 -4 -10 -10 0 -5 -5 -10
-11 -10 -5 0 -7 5 -4 10 3 6 1 10 -4 10 -6 0 -11 -5 -11 -12 0 -6 -3 -9 -6 -5
-13 13 7 24 44 24 l38 0 -24 -26z"/>
<path d="M1030 5229 c0 -5 5 -7 10 -4 6 3 10 8 10 11 0 2 -4 4 -10 4 -5 0 -10
-5 -10 -11z"/>
<path d="M2375 5161 c3 -5 -2 -17 -11 -25 -14 -14 -14 -16 0 -16 17 0 39 34
29 44 -10 9 -25 7 -18 -3z"/>
<path d="M1080 5115 c0 -8 4 -15 8 -15 5 0 9 7 9 15 0 8 -4 15 -9 15 -4 0 -8
-7 -8 -15z"/>
<path d="M1076 5081 c-9 -15 18 -31 34 -21 12 8 11 10 -5 10 -17 0 -17 2 -5
10 13 8 13 10 -2 10 -9 0 -19 -4 -22 -9z"/>
<path d="M1050 4979 c-12 -16 -20 -32 -17 -35 6 -6 47 45 47 57 0 16 -8 10
-30 -22z"/>
<path d="M1036 4753 c-8 -21 -7 -25 3 -18 5 3 17 -2 25 -11 9 -8 16 -11 16 -5
0 6 -9 20 -19 30 -17 17 -20 17 -25 4z"/>
<path d="M1261 4633 c-12 -14 -19 -29 -15 -32 3 -3 10 2 15 12 6 9 14 15 20
12 5 -4 9 3 9 14 0 27 -4 26 -29 -6z"/>
<path d="M1418 4359 c-14 -9 -18 -62 -7 -80 7 -11 17 -5 45 24 19 20 30 37 25
37 -6 0 -11 6 -11 14 0 15 -31 18 -52 5z m42 -21 c0 -3 -9 -6 -20 -5 -11 1
-20 5 -20 9 0 3 9 6 20 5 11 -1 20 -5 20 -9z m-13 -24 c-3 -3 -12 -4 -19 -1
-8 3 -5 6 6 6 11 1 17 -2 13 -5z"/>
<path d="M1440 4275 c-17 -21 -5 -31 15 -12 8 9 15 18 15 21 0 11 -18 6 -30
-9z"/>
</g>
</svg>
